<svg width="9" height="17" viewBox="0 0 9 17" fill="none" xmlns="http://www.w3.org/2000/svg">
<path d="M8.99987 0.833288C8.75076 0.831453 8.50625 0.900323 8.29472 1.0319C8.08319 1.16348 7.91333 1.35236 7.80487 1.57662L5.9532 5.32995L1.80987 5.93162C1.56342 5.96713 1.33184 6.07094 1.14136 6.23129C0.950875 6.39163 0.809096 6.60212 0.732078 6.83889C0.655059 7.07567 0.64588 7.32929 0.70558 7.57101C0.765279 7.81274 0.891472 8.03292 1.06987 8.20662L4.06987 11.1283L3.36153 15.255C3.3194 15.5001 3.34667 15.7521 3.44026 15.9825C3.53385 16.213 3.69003 16.4126 3.89115 16.559C4.09226 16.7053 4.3303 16.7925 4.57836 16.8106C4.82642 16.8287 5.0746 16.7771 5.29487 16.6616L8.99987 14.7133V0.833288Z" fill="#FFAD33"/>
</svg>
