<svg width="9" height="18" viewBox="0 0 9 18" fill="none" xmlns="http://www.w3.org/2000/svg">
<path opacity="0.25" d="M-2.00272e-05 0.835954C0.249089 0.83404 0.500061 1.00001 0.500061 1.00001C0.500061 1.00001 1.08653 1.20807 1.195 1.44195L3.0467 5.35634L7.19011 5.98383C7.43656 6.02086 7.66814 6.12912 7.85863 6.29635C8.04912 6.46358 8.1909 6.68309 8.26792 6.93003C8.34494 7.17697 8.35412 7.44147 8.29442 7.69357C8.23472 7.94567 8.10852 8.1753 7.93013 8.35645L4.93007 11.4035L5.63842 15.7072C5.68055 15.9629 5.65328 16.2257 5.55969 16.466C5.4661 16.7064 5.30992 16.9146 5.1088 17.0672C4.90767 17.2198 4.66963 17.3107 4.42157 17.3296C4.17351 17.3486 3.92532 17.2947 3.70505 17.1743L-2.00272e-05 15.1423V0.835954Z" fill="black"/>
</svg>
